# xmcd
#
# Track frame offsets: 
#        150
#        13773
#        32573
#        51018
#        69927
#        88903
#        106003
#        121171
#        140422
#        157161
#        171944
#        188907
#        206017
#        223528
#        240127
#        260536
#        279824
#        297843
#        318626
#        334988
#
# Disc length: 4686 seconds
#
# Revision: 1
# Processed by: cddbd v1.5.2PL0 Copyright (c) Steve Scherf et al.
# Submitted via: ExactAudioCopyFreeDBPlugin 1.0
#
DISCID=20124c14
DTITLE=Chris Brown - Exclusive - The Forever Edition
DYEAR=2008
DGENRE=R&B
TTITLE0=Throwed
TTITLE1=Kiss Kiss (feat. T-Pain)
TTITLE2=Take You Down
TTITLE3=With You
TTITLE4=Picture Perfect (feat. Will.I.Am)
TTITLE5=Hold Up (feat. Big Boi)
TTITLE6=You
TTITLE7=Damage
TTITLE8=Wall To Wall
TTITLE9=Help Me
TTITLE10=I Wanna Be
TTITLE11=Gimme Watcha Got (feat. Lil Wayne)
TTITLE12=I'll Call Ya
TTITLE13=Lottery
TTITLE14=Nice (feat. The Game) [Special Bonus Track]
TTITLE15=Down (feat. Kanye West) [Special Bonus Track]
TTITLE16=Fallen Angel [Special Bonus Track]
TTITLE17=Forever [The Forever Edition Bonus Track]
TTITLE18=Superhuman (feat. Keri Hilson) [The Forever Edition Bonus Tra
TTITLE18=ck]
TTITLE19=Heart Ain't A Brain [The Forever Edition Bonus Track]
EXTD=
EXTT0=
EXTT1=
EXTT2=
EXTT3=
EXTT4=
EXTT5=
EXTT6=
EXTT7=
EXTT8=
EXTT9=
EXTT10=
EXTT11=
EXTT12=
EXTT13=
EXTT14=
EXTT15=
EXTT16=
EXTT17=
EXTT18=
EXTT19=
PLAYORDER=
